<svg width="60" height="62" viewBox="0 0 60 62" fill="none" xmlns="http://www.w3.org/2000/svg">
<path d="M59.306 25.3614H30.6958V37.336H47.1603C45.6279 44.9454 39.2132 49.3175 30.6958 49.3175C28.3125 49.3216 25.9518 48.8505 23.7492 47.9312C21.5466 47.0119 19.5453 45.6625 17.8602 43.9604C16.1751 42.2582 14.8393 40.2369 13.9295 38.0122C13.0196 35.7876 12.5536 33.4035 12.5581 30.9965C12.554 28.5899 13.0204 26.2061 13.9304 23.9819C14.8405 21.7576 16.1764 19.7367 17.8614 18.0349C19.5465 16.3332 21.5476 14.9841 23.75 14.065C25.9524 13.1459 28.3128 12.6749 30.6958 12.6791C35.0215 12.6791 38.9315 14.2301 41.9997 16.7666L50.9329 7.74836C45.4905 2.95647 38.5123 0.000132057 30.6958 0.000132057C26.6615 -0.0117772 22.6647 0.781929 18.9352 2.3356C15.2057 3.88927 11.8171 6.17225 8.9644 9.05323C6.11169 11.9342 3.85112 15.3563 2.31269 19.1228C0.774267 22.8892 -0.0116513 26.9257 0.000141045 31C-0.0121073 35.0744 0.773499 39.1111 2.31176 42.8777C3.85003 46.6444 6.11059 50.0667 8.96339 52.9478C11.8162 55.8289 15.2049 58.1118 18.9346 59.6653C22.6643 61.2188 26.6614 62.0122 30.6958 61.9999C46.0437 61.9999 60 50.7262 60 31C60 29.1679 59.7217 27.1935 59.306 25.3614Z" fill="white"/>
</svg>
