<svg width="80" height="60" viewBox="0 0 80 60" fill="none" xmlns="http://www.w3.org/2000/svg">
<path d="M34.159 0.000170531C33.0902 0.0942716 30.2018 0.748647 30.2018 0.748647C23.6916 2.42353 22.1516 8.30393 22.1516 8.30393C21.8337 9.29275 21.6893 10.3061 21.6468 11.2609V12.5603C21.7332 14.568 22.1818 16.0671 22.1818 16.0671C24.3565 25.6649 35.0488 41.4355 37.3468 44.7484C37.5098 44.9093 37.6404 44.8512 37.6404 44.8512C37.8884 44.7831 37.869 44.5463 37.869 44.5463L37.8737 44.5475C41.4132 9.33409 34.159 0.000170531 34.159 0.000170531ZM45.8542 0.000170531C45.8542 0.000170531 38.5684 9.33902 42.1106 44.5729H42.1153C42.1427 44.7965 42.3021 44.8431 42.3021 44.8431C42.5392 44.9345 42.6607 44.7079 42.6607 44.7079L42.6619 44.7101C45.0188 41.3126 55.6502 25.6279 57.8153 16.0669C57.8153 16.0669 58.9891 11.4394 57.8559 8.30374C57.8559 8.30374 56.2465 2.33229 49.728 0.754258C49.728 0.754258 47.8494 0.279769 45.8542 0.000170531ZM12.2482 10.5713C12.2482 10.5713 6.04516 16.4314 5.73686 22.644H5.73932V23.5854C5.74404 23.6562 5.74763 23.728 5.75212 23.8002C6.01933 28.8098 9.80563 31.7747 9.80563 31.7747C15.9062 37.6927 30.6779 45.1645 34.1105 46.8598C34.1586 46.8777 34.3359 46.9354 34.4401 46.8044C34.4401 46.8044 34.4942 46.7635 34.519 46.6899V46.5339C34.5165 46.525 34.5118 46.516 34.5073 46.5062C25.1071 26.0666 12.2482 10.5713 12.2482 10.5713ZM67.7499 10.5713C67.7499 10.5713 54.9288 26.0182 45.5328 46.4163L45.5364 46.4151C45.5364 46.4151 45.4254 46.6516 45.6048 46.8044C45.6048 46.8044 45.6584 46.8446 45.7325 46.8609H45.8625C45.8858 46.8542 45.9109 46.8453 45.9356 46.8285C49.4613 45.0868 64.1188 37.6664 70.1905 31.7757C70.1905 31.7757 74.0356 28.7023 74.2371 23.7677C74.681 16.914 67.7499 10.5713 67.7499 10.5713ZM79.2896 30.8634C79.2896 30.8634 58.3873 42.0284 47.5798 49.2844L47.5835 49.2878C47.5835 49.2878 47.3874 49.4156 47.4558 49.6447C47.4558 49.6447 47.5584 49.8295 47.7077 49.8295C51.5787 49.8363 66.227 49.8538 66.5943 49.7856C66.5943 49.7856 68.4884 49.7103 70.8288 48.8153C70.8288 48.8153 76.0392 47.1665 78.7455 41.2786C78.7455 41.2786 79.9822 38.8165 80 35.3577V35.2111C79.991 33.8772 79.8021 32.4005 79.2896 30.8634ZM0.702741 30.9155C-1.19906 36.7756 1.36124 41.4975 1.36537 41.5051C4.03352 47.1164 9.12658 48.8166 9.12658 48.8166C11.478 49.7782 13.83 49.8447 13.83 49.8447C14.1972 49.9115 28.4552 49.8513 32.2756 49.8335C32.4373 49.8323 32.5263 49.6705 32.5263 49.6705C32.5375 49.6526 32.5474 49.6347 32.5518 49.6184V49.4718C32.5201 49.3737 32.4358 49.3044 32.4358 49.3044L32.4382 49.3032C21.6362 42.0496 0.702741 30.9155 0.702741 30.9155ZM31.8393 51.635L7.2501 52.4932C9.91669 57.2246 14.4075 60.9017 19.0857 59.7724C22.3141 58.9691 29.6279 53.8913 32.0423 52.1755L32.0343 52.1688C32.222 52.001 32.1549 51.8662 32.1549 51.8662C32.0932 51.6465 31.8393 51.6467 31.8393 51.6467L31.8393 51.635ZM48.1253 51.6529L48.1228 51.6618C48.1228 51.6618 47.9069 51.6891 47.8466 51.85C47.8466 51.85 47.7941 52.07 47.9394 52.1792L47.937 52.1814C50.2911 53.8617 57.4277 58.8278 60.8657 59.7921C60.8657 59.7921 61.3866 59.9685 62.2595 60H62.784C65.0874 59.9195 69.1002 58.7417 72.7466 52.5059L48.1253 51.6529Z" fill="white"/>
</svg>
