<svg width="260" height="42" viewBox="0 0 260 42" fill="none" xmlns="http://www.w3.org/2000/svg">
<path d="M10.4 11.55C10.4 10.5 10.4 10.5 10.4 9.45C10.4 8.4 11.44 7.35 13.52 7.35C15.6 7.35 16.64 8.4 16.64 10.5V12.6H26V9.45C26 1.05 18.72 0 13.52 0C7.28 0 1.04 2.1 1.04 8.4C1.04 10.5 1.04 11.55 1.04 13.65C3.12 21 15.6 23.1 17.68 28.35C17.68 29.4 17.68 30.45 17.68 31.5C17.68 32.55 16.64 33.6 14.56 33.6C12.48 33.6 10.4 32.55 10.4 30.45V27.3H0V30.45C0 38.85 6.24 40.95 13.52 40.95C19.76 40.95 26 38.85 27.04 32.55C27.04 29.4 27.04 27.3 27.04 26.25C24.96 18.9 11.44 16.8 10.4 11.55ZM131.04 11.55C131.04 10.5 131.04 10.5 131.04 9.45C131.04 8.4 132.08 7.35 134.16 7.35C136.24 7.35 137.28 8.4 137.28 10.5V12.6H146.64V10.5C146.64 2.1 139.36 1.05 134.16 1.05C127.92 1.05 122.72 3.15 121.68 9.45C121.68 11.55 121.68 12.6 121.68 14.7C123.76 22.05 136.24 24.15 138.32 29.4C138.32 30.45 138.32 31.5 138.32 32.55C138.32 33.6 137.28 34.65 135.2 34.65C133.12 34.65 131.04 33.6 131.04 31.5V28.35H121.68V31.5C121.68 39.9 127.92 42 135.2 42C141.44 42 147.68 39.9 147.68 33.6C147.68 30.45 147.68 28.35 147.68 27.3C145.6 18.9 132.08 16.8 131.04 11.55ZM215.28 32.55L206.96 2.1H193.44V38.85H202.8L201.76 7.35L211.12 38.85H224.64V2.1H215.28V32.55ZM40.56 2.1L33.28 39.9H43.68L48.88 5.25L54.08 39.9H64.48L57.2 2.1H40.56ZM95.68 2.1L90.48 31.5L86.32 2.1H70.72L69.68 39.9H79.04V5.25L85.28 39.9H94.64L100.88 5.25V39.9H110.24L109.2 2.1H95.68ZM182 2.1H172.64V29.4V30.45C172.64 31.5 171.6 33.6 169.52 33.6C167.44 33.6 166.4 31.5 166.4 30.45V29.4V2.1H157.04V29.4C157.04 30.45 157.04 31.5 157.04 31.5C158.08 38.85 163.28 40.95 169.52 40.95C176.8 40.95 182 38.85 182 31.5V29.4V2.1ZM246.48 18.9V24.15H250.64V29.4V30.45C250.64 31.5 249.6 33.6 246.48 33.6C243.36 33.6 243.36 31.5 242.32 30.45V29.4V12.6C242.32 11.55 242.32 11.55 242.32 10.5C242.32 9.45 243.36 7.35 246.48 7.35C249.6 7.35 249.6 9.45 250.64 10.5C250.64 11.55 250.64 11.55 250.64 11.55V13.65H260V12.6C260 12.6 260 11.55 260 10.5C258.96 3.15 253.76 1.05 246.48 1.05C240.24 1.05 234 3.15 232.96 10.5C232.96 11.55 232.96 12.6 232.96 12.6V28.35C232.96 29.4 232.96 29.4 232.96 30.45C234 37.8 239.2 39.9 246.48 39.9C252.72 39.9 258.96 37.8 260 30.45C260 29.4 260 28.35 260 28.35V17.85H246.48V18.9Z" fill="white"/>
</svg>
