<svg width="65" height="77" viewBox="0 0 65 77" fill="none" xmlns="http://www.w3.org/2000/svg">
<path d="M63.6356 60.0065C62.5112 62.6215 61.1219 65.1152 59.4896 67.4486C57.309 70.5558 55.5182 72.703 54.1457 73.8981C52.0138 75.8508 49.7236 76.8555 47.2749 76.9122C45.5207 76.9122 43.401 76.4139 40.9321 75.4011C38.455 74.3923 36.181 73.8981 34.0979 73.8981C31.9173 73.8981 29.5783 74.3923 27.0728 75.4011C24.5714 76.4139 22.5492 76.9446 21.0021 76.9932C18.659 77.0945 16.316 76.0655 13.9811 73.8981C12.4908 72.6017 10.6269 70.3735 8.38945 67.2217C5.99363 63.8632 4.02418 59.9538 2.4811 55.5096C0.828388 50.7009 0 46.0501 0 41.5451C0 36.3879 1.1167 31.9357 3.35416 28.2086C5.04646 25.2814 7.46584 22.8384 10.3792 21.1149C13.252 19.3958 16.5316 18.4702 19.8813 18.433C21.7492 18.433 24.1978 19.0083 27.2312 20.1426C30.2646 21.2769 32.2137 21.8522 33.0624 21.8522C33.704 21.8522 35.8602 21.1757 39.5311 19.8347C42.9949 18.591 45.9187 18.0765 48.3145 18.279C54.8116 18.8017 59.6886 21.3539 62.9331 25.9561C57.1263 29.4685 54.2553 34.3826 54.3122 40.6903C54.3609 45.6044 56.1517 49.6921 59.6602 52.9371C61.2112 54.418 63.021 55.6029 65 56.4333C64.5696 57.677 64.1148 58.8641 63.6356 60.0065ZM48.7449 1.54351C48.7449 5.39216 47.3318 8.98963 44.5258 12.3157C41.1311 16.2696 37.0297 18.5586 32.5832 18.198C32.5251 17.7141 32.4966 17.227 32.498 16.7396C32.498 13.0408 34.106 9.08686 36.977 5.84994C38.4063 4.21326 40.2255 2.848 42.4305 1.76228C44.6314 0.692757 46.7105 0.10128 48.6678 0C48.7206 0.518555 48.7449 1.03306 48.7449 1.54351Z" fill="#111111"/>
</svg>
