<svg width="55" height="65" viewBox="0 0 55 65" fill="none" xmlns="http://www.w3.org/2000/svg">
<path d="M53.8455 50.6548C52.8941 52.8623 51.7186 54.9673 50.3374 56.9371C48.4922 59.5601 46.9769 61.3726 45.8156 62.3815C44.0117 64.0299 42.0738 64.878 40.0019 64.9259C38.5175 64.9259 36.7239 64.5052 34.6348 63.6503C32.5389 62.7987 30.6147 62.3815 28.8521 62.3815C27.0069 62.3815 25.0278 62.7987 22.9078 63.6503C20.7912 64.5052 19.0801 64.9532 17.771 64.9943C15.7884 65.0798 13.8058 64.2111 11.8301 62.3815C10.5691 61.2871 8.992 59.4062 7.09877 56.7456C5.07153 53.9105 3.40507 50.6104 2.09939 46.8588C0.700944 42.7994 0 38.8734 0 35.0706C0 30.7171 0.9449 26.9587 2.83813 23.8124C4.27008 21.3415 6.31725 19.2792 8.78241 17.8243C11.2133 16.3731 13.9882 15.5917 16.8226 15.5603C18.4032 15.5603 20.4751 16.0459 23.0418 17.0035C25.6085 17.9611 27.2578 18.4467 27.9759 18.4467C28.5188 18.4467 30.3433 17.8756 33.4494 16.7436C36.3803 15.6937 38.8543 15.2594 40.8815 15.4304C46.3791 15.8715 50.5057 18.026 53.2511 21.911C48.3376 24.876 45.9084 29.0243 45.9565 34.349C45.9977 38.4973 47.513 41.9479 50.4817 44.6872C51.7941 45.9373 53.3255 46.9375 55 47.6385C54.6358 48.6884 54.251 49.6904 53.8455 50.6548ZM41.2457 1.30296C41.2457 4.55182 40.05 7.58865 37.6757 10.3963C34.8032 13.7341 31.3329 15.6663 27.5704 15.362C27.5212 14.9534 27.4971 14.5423 27.4983 14.1308C27.4983 11.0085 28.8589 7.67072 31.2882 4.93826C32.4977 3.55664 34.037 2.40416 35.9027 1.48764C37.765 0.584795 39.5243 0.0854963 41.1804 0C41.2251 0.437741 41.2457 0.872062 41.2457 1.30296Z" fill="white"/>
</svg>
