<svg width="59" height="60" viewBox="0 0 59 60" fill="none" xmlns="http://www.w3.org/2000/svg">
<path d="M57.61 24.52H29.8534V36.0233H45.8267C44.34 43.3333 38.1167 47.5333 29.8534 47.5333C27.5412 47.5372 25.2509 47.0847 23.114 46.2016C20.9771 45.3184 19.0355 44.0221 17.4007 42.387C15.7658 40.7518 14.4699 38.81 13.5872 36.6729C12.7045 34.5358 12.2523 32.2455 12.2567 29.9333C12.2528 27.6214 12.7052 25.3314 13.5881 23.1947C14.471 21.058 15.7671 19.1165 17.4018 17.4818C19.0366 15.847 20.978 14.551 23.1148 13.668C25.2515 12.7851 27.5414 12.3327 29.8534 12.3366C34.05 12.3366 37.8434 13.8266 40.82 16.2633L49.4867 7.59996C44.2067 2.99662 37.4367 0.156621 29.8534 0.156621C25.9394 0.14518 22.0618 0.907654 18.4435 2.40019C14.8253 3.89272 11.5378 6.08586 8.77023 8.85347C6.00262 11.6211 3.80948 14.9085 2.31694 18.5268C0.824412 22.145 0.0619384 26.0226 0.073379 29.9366C0.061496 33.8507 0.823667 37.7285 2.31604 41.347C3.80842 44.9654 6.00154 48.2531 8.76924 51.0208C11.5369 53.7885 14.8246 55.9816 18.443 57.474C22.0615 58.9663 25.9393 59.7285 29.8534 59.7166C44.7434 59.7166 58.2834 48.8866 58.2834 29.9366C58.2834 28.1766 58.0134 26.28 57.61 24.52Z" fill="#111111"/>
</svg>
