<svg width="60" height="60" viewBox="0 0 60 60" fill="none" xmlns="http://www.w3.org/2000/svg">
<path d="M30 0C39.9463 0 48.0855 0.630703 53.7461 6.26953C59.418 11.9222 60 20.0692 60 30.0293C60 39.9783 59.4241 48.1177 53.7646 53.7725C48.1067 59.4273 39.9579 60 30 60C20.0422 60 11.8913 59.4273 6.2334 53.7725C0.573944 48.1188 4.53815e-06 39.9781 0 30.0293C0 20.0819 0.57413 11.9437 6.23145 6.29199C11.8897 0.63793 20.0412 0 30 0ZM12.2686 18.5869C12.0607 18.587 11.8937 18.753 11.8936 18.957V41.1514C11.894 41.352 12.061 41.5185 12.2686 41.5186H17.1338C17.3414 41.5184 17.5123 41.3519 17.5127 41.1514V23.7314C17.5128 23.5305 17.6822 23.3645 17.8887 23.3643H26.7031C28.4356 23.4068 30.1022 23.6115 30.9951 24.5068C32.0322 25.5477 32.1481 27.6155 32.1533 29.627V41.1514C32.1538 41.3519 32.3234 41.5185 32.5312 41.5186H37.3936C37.6009 41.5184 37.77 41.3519 37.7705 41.1514V29.8223C37.7628 26.2207 37.5614 22.5116 35.7021 20.6484C33.8104 18.7554 29.9739 18.5869 26.3057 18.5869H12.2686ZM22.2871 27.4258C22.0772 27.4258 21.9084 27.5914 21.9082 27.7939V41.1514C21.9086 41.352 22.0774 41.5186 22.2871 41.5186H27.3945C27.601 41.5184 27.7691 41.3519 27.7695 41.1514V27.7939C27.7693 27.5915 27.6012 27.426 27.3945 27.4258H22.2871ZM42.5459 18.5869C42.3373 18.5871 42.1681 18.753 42.168 18.957V41.1514C42.1684 41.3519 42.3376 41.5184 42.5459 41.5186H47.4092C47.6149 41.5183 47.7867 41.3519 47.7871 41.1514V18.957C47.7869 18.7529 47.615 18.5872 47.4092 18.5869H42.5459Z" fill="white"/>
</svg>
