<svg width="194" height="38" viewBox="0 0 194 38" fill="none" xmlns="http://www.w3.org/2000/svg">
<path d="M2.68963 38C1.22563 38 0.0256271 36.8 0.0256271 35.336C0.0256271 33.848 1.22563 32.672 2.68963 32.672C4.17763 32.672 5.35363 33.872 5.35363 35.336C5.35363 36.8 4.15363 38 2.68963 38ZM24.0256 38C22.5616 38 21.3616 36.8 21.3616 35.336C21.3616 33.848 22.5616 32.672 24.0256 32.672C25.4896 32.672 26.6896 33.872 26.6896 35.336C26.6896 36.8 25.4896 38 24.0256 38ZM2.68963 32.672C1.22563 32.672 0.0256271 31.472 0.0256271 30.008C0.0256271 28.52 1.22563 27.344 2.68963 27.344C4.17763 27.344 5.35363 28.52 5.35363 30.008C5.35363 31.472 4.15363 32.672 2.68963 32.672ZM24.0256 32.672C22.5616 32.672 21.3616 31.472 21.3616 30.008C21.3616 28.52 22.5616 27.344 24.0256 27.344C25.4896 27.344 26.6896 28.52 26.6896 30.008C26.6896 31.472 25.4896 32.672 24.0256 32.672ZM2.68963 27.344C1.22563 27.344 0.0256271 26.144 0.0256271 24.656C0.0256271 23.192 1.22563 21.992 2.68963 21.992C4.17763 21.992 5.35363 23.192 5.35363 24.656C5.35363 26.144 4.15363 27.344 2.68963 27.344ZM18.6976 27.344C17.2096 27.344 16.0336 26.144 16.0336 24.656C16.0336 23.192 17.2096 21.992 18.6976 21.992C20.1616 21.992 21.3616 23.192 21.3616 24.656C21.3616 26.144 20.1616 27.344 18.6976 27.344ZM24.0256 27.344C22.5616 27.344 21.3616 26.144 21.3616 24.656C21.3616 23.192 22.5616 21.992 24.0256 21.992C25.4896 21.992 26.6896 23.192 26.6896 24.656C26.6896 26.144 25.4896 27.344 24.0256 27.344ZM2.68963 21.992C1.22563 21.992 0.0256271 20.816 0.0256271 19.328C0.0256271 17.864 1.22563 16.664 2.68963 16.664C4.17763 16.664 5.35363 17.864 5.35363 19.328C5.35363 20.816 4.15363 21.992 2.68963 21.992ZM13.3696 21.992C11.8816 21.992 10.6816 20.816 10.6816 19.328C10.6816 17.864 11.8816 16.664 13.3696 16.664C14.8336 16.664 16.0336 17.864 16.0336 19.328C16.0336 20.816 14.8336 21.992 13.3696 21.992ZM24.0256 21.992C22.5616 21.992 21.3616 20.816 21.3616 19.328C21.3616 17.864 22.5616 16.664 24.0256 16.664C25.4896 16.664 26.6896 17.864 26.6896 19.328C26.6896 20.816 25.4896 21.992 24.0256 21.992ZM2.68963 16.664C1.22563 16.664 0.0256271 15.464 0.0256271 14C0.0256271 12.536 1.22563 11.336 2.68963 11.336C4.17763 11.336 5.35363 12.536 5.35363 14C5.35363 15.464 4.15363 16.664 2.68963 16.664ZM8.01763 16.664C6.55363 16.664 5.35363 15.464 5.35363 14C5.35363 12.536 6.55363 11.336 8.01763 11.336C9.50563 11.336 10.6816 12.536 10.6816 14C10.6816 15.464 9.50563 16.664 8.01763 16.664ZM24.0256 16.664C22.5616 16.664 21.3616 15.464 21.3616 14C21.3616 12.536 22.5616 11.336 24.0256 11.336C25.4896 11.336 26.6896 12.536 26.6896 14C26.6896 15.464 25.4896 16.664 24.0256 16.664ZM2.68963 11.336C1.22563 11.336 0.0256271 10.136 0.0256271 8.672C0.0256271 7.184 1.22563 6.008 2.68963 6.008C4.17763 6.008 5.35363 7.184 5.35363 8.672C5.35363 10.136 4.15363 11.336 2.68963 11.336ZM24.0256 11.336C22.5616 11.336 21.3616 10.136 21.3616 8.672C21.3616 7.184 22.5616 6.008 24.0256 6.008C25.4896 6.008 26.6896 7.184 26.6896 8.672C26.6896 10.136 25.4896 11.336 24.0256 11.336ZM2.68963 6.008C1.22563 6.008 0.0256271 4.808 0.0256271 3.344C0.0256271 1.856 1.22563 0.655997 2.68963 0.655997C4.17763 0.655997 5.35363 1.856 5.35363 3.344C5.35363 4.808 4.15363 6.008 2.68963 6.008ZM24.0256 6.008C22.5616 6.008 21.3616 4.808 21.3616 3.344C21.3616 1.856 22.5616 0.655997 24.0256 0.655997C25.4896 0.655997 26.6896 1.856 26.6896 3.344C26.6896 4.808 25.4896 6.008 24.0256 6.008ZM38.0664 38C36.6024 38 35.4024 36.8 35.4024 35.336C35.4024 33.848 36.6024 32.672 38.0664 32.672C39.5544 32.672 40.7304 33.872 40.7304 35.336C40.7304 36.8 39.5544 38 38.0664 38ZM43.4184 38C41.9304 38 40.7304 36.8 40.7304 35.336C40.7304 33.848 41.9304 32.672 43.4184 32.672C44.8824 32.672 46.0824 33.872 46.0824 35.336C46.0824 36.8 44.8824 38 43.4184 38ZM48.7464 38C47.2584 38 46.0824 36.8 46.0824 35.336C46.0824 33.848 47.2584 32.672 48.7464 32.672C50.2104 32.672 51.4104 33.872 51.4104 35.336C51.4104 36.8 50.2104 38 48.7464 38ZM32.7384 32.672C31.2744 32.672 30.0744 31.472 30.0744 30.008C30.0744 28.52 31.2744 27.344 32.7384 27.344C34.2264 27.344 35.4024 28.52 35.4024 30.008C35.4024 31.472 34.2024 32.672 32.7384 32.672ZM54.0744 32.672C52.6104 32.672 51.4104 31.472 51.4104 30.008C51.4104 28.52 52.6104 27.344 54.0744 27.344C55.5384 27.344 56.7384 28.52 56.7384 30.008C56.7384 31.472 55.5384 32.672 54.0744 32.672ZM32.7384 27.344C31.2744 27.344 30.0744 26.144 30.0744 24.656C30.0744 23.192 31.2744 21.992 32.7384 21.992C34.2264 21.992 35.4024 23.192 35.4024 24.656C35.4024 26.144 34.2024 27.344 32.7384 27.344ZM54.0744 27.344C52.6104 27.344 51.4104 26.144 51.4104 24.656C51.4104 23.192 52.6104 21.992 54.0744 21.992C55.5384 21.992 56.7384 23.192 56.7384 24.656C56.7384 26.144 55.5384 27.344 54.0744 27.344ZM32.7384 21.992C31.2744 21.992 30.0744 20.816 30.0744 19.328C30.0744 17.864 31.2744 16.664 32.7384 16.664C34.2264 16.664 35.4024 17.864 35.4024 19.328C35.4024 20.816 34.2024 21.992 32.7384 21.992ZM54.0744 21.992C52.6104 21.992 51.4104 20.816 51.4104 19.328C51.4104 17.864 52.6104 16.664 54.0744 16.664C55.5384 16.664 56.7384 17.864 56.7384 19.328C56.7384 20.816 55.5384 21.992 54.0744 21.992ZM32.7384 16.664C31.2744 16.664 30.0744 15.464 30.0744 14C30.0744 12.536 31.2744 11.336 32.7384 11.336C34.2264 11.336 35.4024 12.536 35.4024 14C35.4024 15.464 34.2024 16.664 32.7384 16.664ZM54.0744 16.664C52.6104 16.664 51.4104 15.464 51.4104 14C51.4104 12.536 52.6104 11.336 54.0744 11.336C55.5384 11.336 56.7384 12.536 56.7384 14C56.7384 15.464 55.5384 16.664 54.0744 16.664ZM32.7384 11.336C31.2744 11.336 30.0744 10.136 30.0744 8.672C30.0744 7.184 31.2744 6.008 32.7384 6.008C34.2264 6.008 35.4024 7.184 35.4024 8.672C35.4024 10.136 34.2024 11.336 32.7384 11.336ZM54.0744 11.336C52.6104 11.336 51.4104 10.136 51.4104 8.672C51.4104 7.184 52.6104 6.008 54.0744 6.008C55.5384 6.008 56.7384 7.184 56.7384 8.672C56.7384 10.136 55.5384 11.336 54.0744 11.336ZM38.0664 6.008C36.6024 6.008 35.4024 4.808 35.4024 3.344C35.4024 1.856 36.6024 0.655997 38.0664 0.655997C39.5544 0.655997 40.7304 1.856 40.7304 3.344C40.7304 4.808 39.5544 6.008 38.0664 6.008ZM43.4184 6.008C41.9304 6.008 40.7304 4.808 40.7304 3.344C40.7304 1.856 41.9304 0.655997 43.4184 0.655997C44.8824 0.655997 46.0824 1.856 46.0824 3.344C46.0824 4.808 44.8824 6.008 43.4184 6.008ZM48.7464 6.008C47.2584 6.008 46.0824 4.808 46.0824 3.344C46.0824 1.856 47.2584 0.655997 48.7464 0.655997C50.2104 0.655997 51.4104 1.856 51.4104 3.344C51.4104 4.808 50.2104 6.008 48.7464 6.008ZM70.7953 38C69.3073 38 68.1073 36.8 68.1073 35.336C68.1073 33.848 69.3073 32.672 70.7953 32.672C72.2593 32.672 73.4593 33.872 73.4593 35.336C73.4593 36.8 72.2593 38 70.7953 38ZM70.7953 32.672C69.3073 32.672 68.1073 31.472 68.1073 30.008C68.1073 28.52 69.3073 27.344 70.7953 27.344C72.2593 27.344 73.4593 28.52 73.4593 30.008C73.4593 31.472 72.2593 32.672 70.7953 32.672ZM70.7953 27.344C69.3073 27.344 68.1073 26.144 68.1073 24.656C68.1073 23.192 69.3073 21.992 70.7953 21.992C72.2593 21.992 73.4593 23.192 73.4593 24.656C73.4593 26.144 72.2593 27.344 70.7953 27.344ZM70.7953 21.992C69.3073 21.992 68.1073 20.816 68.1073 19.328C68.1073 17.864 69.3073 16.664 70.7953 16.664C72.2593 16.664 73.4593 17.864 73.4593 19.328C73.4593 20.816 72.2593 21.992 70.7953 21.992ZM70.7953 16.664C69.3073 16.664 68.1073 15.464 68.1073 14C68.1073 12.536 69.3073 11.336 70.7953 11.336C72.2593 11.336 73.4593 12.536 73.4593 14C73.4593 15.464 72.2593 16.664 70.7953 16.664ZM70.7953 11.336C69.3073 11.336 68.1073 10.136 68.1073 8.672C68.1073 7.184 69.3073 6.008 70.7953 6.008C72.2593 6.008 73.4593 7.184 73.4593 8.672C73.4593 10.136 72.2593 11.336 70.7953 11.336ZM60.1153 6.008C58.6513 6.008 57.4513 4.808 57.4513 3.344C57.4513 1.856 58.6513 0.655997 60.1153 0.655997C61.6033 0.655997 62.7793 1.856 62.7793 3.344C62.7793 4.808 61.5793 6.008 60.1153 6.008ZM65.4433 6.008C63.9793 6.008 62.7793 4.808 62.7793 3.344C62.7793 1.856 63.9793 0.655997 65.4433 0.655997C66.9313 0.655997 68.1073 1.856 68.1073 3.344C68.1073 4.808 66.9313 6.008 65.4433 6.008ZM70.7953 6.008C69.3073 6.008 68.1073 4.808 68.1073 3.344C68.1073 1.856 69.3073 0.655997 70.7953 0.655997C72.2593 0.655997 73.4593 1.856 73.4593 3.344C73.4593 4.808 72.2593 6.008 70.7953 6.008ZM76.1233 6.008C74.6353 6.008 73.4593 4.808 73.4593 3.344C73.4593 1.856 74.6353 0.655997 76.1233 0.655997C77.5873 0.655997 78.7873 1.856 78.7873 3.344C78.7873 4.808 77.5873 6.008 76.1233 6.008ZM81.4513 6.008C79.9873 6.008 78.7873 4.808 78.7873 3.344C78.7873 1.856 79.9873 0.655997 81.4513 0.655997C82.9153 0.655997 84.1153 1.856 84.1153 3.344C84.1153 4.808 82.9153 6.008 81.4513 6.008ZM90.164 38C88.7 38 87.5 36.8 87.5 35.336C87.5 33.848 88.7 32.672 90.164 32.672C91.652 32.672 92.828 33.872 92.828 35.336C92.828 36.8 91.628 38 90.164 38ZM111.5 38C110.036 38 108.836 36.8 108.836 35.336C108.836 33.848 110.036 32.672 111.5 32.672C112.964 32.672 114.164 33.872 114.164 35.336C114.164 36.8 112.964 38 111.5 38ZM90.164 32.672C88.7 32.672 87.5 31.472 87.5 30.008C87.5 28.52 88.7 27.344 90.164 27.344C91.652 27.344 92.828 28.52 92.828 30.008C92.828 31.472 91.628 32.672 90.164 32.672ZM111.5 32.672C110.036 32.672 108.836 31.472 108.836 30.008C108.836 28.52 110.036 27.344 111.5 27.344C112.964 27.344 114.164 28.52 114.164 30.008C114.164 31.472 112.964 32.672 111.5 32.672ZM90.164 27.344C88.7 27.344 87.5 26.144 87.5 24.656C87.5 23.192 88.7 21.992 90.164 21.992C91.652 21.992 92.828 23.192 92.828 24.656C92.828 26.144 91.628 27.344 90.164 27.344ZM111.5 27.344C110.036 27.344 108.836 26.144 108.836 24.656C108.836 23.192 110.036 21.992 111.5 21.992C112.964 21.992 114.164 23.192 114.164 24.656C114.164 26.144 112.964 27.344 111.5 27.344ZM90.164 21.992C88.7 21.992 87.5 20.816 87.5 19.328C87.5 17.864 88.7 16.664 90.164 16.664C91.652 16.664 92.828 17.864 92.828 19.328C92.828 20.816 91.628 21.992 90.164 21.992ZM95.492 21.992C94.028 21.992 92.828 20.816 92.828 19.328C92.828 17.864 94.028 16.664 95.492 16.664C96.98 16.664 98.156 17.864 98.156 19.328C98.156 20.816 96.98 21.992 95.492 21.992ZM100.844 21.992C99.356 21.992 98.156 20.816 98.156 19.328C98.156 17.864 99.356 16.664 100.844 16.664C102.308 16.664 103.508 17.864 103.508 19.328C103.508 20.816 102.308 21.992 100.844 21.992ZM106.172 21.992C104.684 21.992 103.508 20.816 103.508 19.328C103.508 17.864 104.684 16.664 106.172 16.664C107.636 16.664 108.836 17.864 108.836 19.328C108.836 20.816 107.636 21.992 106.172 21.992ZM111.5 21.992C110.036 21.992 108.836 20.816 108.836 19.328C108.836 17.864 110.036 16.664 111.5 16.664C112.964 16.664 114.164 17.864 114.164 19.328C114.164 20.816 112.964 21.992 111.5 21.992ZM90.164 16.664C88.7 16.664 87.5 15.464 87.5 14C87.5 12.536 88.7 11.336 90.164 11.336C91.652 11.336 92.828 12.536 92.828 14C92.828 15.464 91.628 16.664 90.164 16.664ZM111.5 16.664C110.036 16.664 108.836 15.464 108.836 14C108.836 12.536 110.036 11.336 111.5 11.336C112.964 11.336 114.164 12.536 114.164 14C114.164 15.464 112.964 16.664 111.5 16.664ZM90.164 11.336C88.7 11.336 87.5 10.136 87.5 8.672C87.5 7.184 88.7 6.008 90.164 6.008C91.652 6.008 92.828 7.184 92.828 8.672C92.828 10.136 91.628 11.336 90.164 11.336ZM111.5 11.336C110.036 11.336 108.836 10.136 108.836 8.672C108.836 7.184 110.036 6.008 111.5 6.008C112.964 6.008 114.164 7.184 114.164 8.672C114.164 10.136 112.964 11.336 111.5 11.336ZM90.164 6.008C88.7 6.008 87.5 4.808 87.5 3.344C87.5 1.856 88.7 0.655997 90.164 0.655997C91.652 0.655997 92.828 1.856 92.828 3.344C92.828 4.808 91.628 6.008 90.164 6.008ZM111.5 6.008C110.036 6.008 108.836 4.808 108.836 3.344C108.836 1.856 110.036 0.655997 111.5 0.655997C112.964 0.655997 114.164 1.856 114.164 3.344C114.164 4.808 112.964 6.008 111.5 6.008ZM120.213 38C118.749 38 117.549 36.8 117.549 35.336C117.549 33.848 118.749 32.672 120.213 32.672C121.701 32.672 122.877 33.872 122.877 35.336C122.877 36.8 121.677 38 120.213 38ZM125.541 38C124.077 38 122.877 36.8 122.877 35.336C122.877 33.848 124.077 32.672 125.541 32.672C127.029 32.672 128.205 33.872 128.205 35.336C128.205 36.8 127.029 38 125.541 38ZM130.893 38C129.405 38 128.205 36.8 128.205 35.336C128.205 33.848 129.405 32.672 130.893 32.672C132.357 32.672 133.557 33.872 133.557 35.336C133.557 36.8 132.357 38 130.893 38ZM125.541 32.672C124.077 32.672 122.877 31.472 122.877 30.008C122.877 28.52 124.077 27.344 125.541 27.344C127.029 27.344 128.205 28.52 128.205 30.008C128.205 31.472 127.029 32.672 125.541 32.672ZM125.541 27.344C124.077 27.344 122.877 26.144 122.877 24.656C122.877 23.192 124.077 21.992 125.541 21.992C127.029 21.992 128.205 23.192 128.205 24.656C128.205 26.144 127.029 27.344 125.541 27.344ZM125.541 21.992C124.077 21.992 122.877 20.816 122.877 19.328C122.877 17.864 124.077 16.664 125.541 16.664C127.029 16.664 128.205 17.864 128.205 19.328C128.205 20.816 127.029 21.992 125.541 21.992ZM125.541 16.664C124.077 16.664 122.877 15.464 122.877 14C122.877 12.536 124.077 11.336 125.541 11.336C127.029 11.336 128.205 12.536 128.205 14C128.205 15.464 127.029 16.664 125.541 16.664ZM125.541 11.336C124.077 11.336 122.877 10.136 122.877 8.672C122.877 7.184 124.077 6.008 125.541 6.008C127.029 6.008 128.205 7.184 128.205 8.672C128.205 10.136 127.029 11.336 125.541 11.336ZM120.213 6.008C118.749 6.008 117.549 4.808 117.549 3.344C117.549 1.856 118.749 0.655997 120.213 0.655997C121.701 0.655997 122.877 1.856 122.877 3.344C122.877 4.808 121.677 6.008 120.213 6.008ZM125.541 6.008C124.077 6.008 122.877 4.808 122.877 3.344C122.877 1.856 124.077 0.655997 125.541 0.655997C127.029 0.655997 128.205 1.856 128.205 3.344C128.205 4.808 127.029 6.008 125.541 6.008ZM130.893 6.008C129.405 6.008 128.205 4.808 128.205 3.344C128.205 1.856 129.405 0.655997 130.893 0.655997C132.357 0.655997 133.557 1.856 133.557 3.344C133.557 4.808 132.357 6.008 130.893 6.008ZM139.621 38C138.157 38 136.957 36.8 136.957 35.336C136.957 33.848 138.157 32.672 139.621 32.672C141.109 32.672 142.285 33.872 142.285 35.336C142.285 36.8 141.085 38 139.621 38ZM160.957 38C159.493 38 158.293 36.8 158.293 35.336C158.293 33.848 159.493 32.672 160.957 32.672C162.421 32.672 163.621 33.872 163.621 35.336C163.621 36.8 162.421 38 160.957 38ZM139.621 32.672C138.157 32.672 136.957 31.472 136.957 30.008C136.957 28.52 138.157 27.344 139.621 27.344C141.109 27.344 142.285 28.52 142.285 30.008C142.285 31.472 141.085 32.672 139.621 32.672ZM160.957 32.672C159.493 32.672 158.293 31.472 158.293 30.008C158.293 28.52 159.493 27.344 160.957 27.344C162.421 27.344 163.621 28.52 163.621 30.008C163.621 31.472 162.421 32.672 160.957 32.672ZM139.621 27.344C138.157 27.344 136.957 26.144 136.957 24.656C136.957 23.192 138.157 21.992 139.621 21.992C141.109 21.992 142.285 23.192 142.285 24.656C142.285 26.144 141.085 27.344 139.621 27.344ZM155.629 27.344C154.141 27.344 152.965 26.144 152.965 24.656C152.965 23.192 154.141 21.992 155.629 21.992C157.093 21.992 158.293 23.192 158.293 24.656C158.293 26.144 157.093 27.344 155.629 27.344ZM160.957 27.344C159.493 27.344 158.293 26.144 158.293 24.656C158.293 23.192 159.493 21.992 160.957 21.992C162.421 21.992 163.621 23.192 163.621 24.656C163.621 26.144 162.421 27.344 160.957 27.344ZM139.621 21.992C138.157 21.992 136.957 20.816 136.957 19.328C136.957 17.864 138.157 16.664 139.621 16.664C141.109 16.664 142.285 17.864 142.285 19.328C142.285 20.816 141.085 21.992 139.621 21.992ZM150.301 21.992C148.813 21.992 147.613 20.816 147.613 19.328C147.613 17.864 148.813 16.664 150.301 16.664C151.765 16.664 152.965 17.864 152.965 19.328C152.965 20.816 151.765 21.992 150.301 21.992ZM160.957 21.992C159.493 21.992 158.293 20.816 158.293 19.328C158.293 17.864 159.493 16.664 160.957 16.664C162.421 16.664 163.621 17.864 163.621 19.328C163.621 20.816 162.421 21.992 160.957 21.992ZM139.621 16.664C138.157 16.664 136.957 15.464 136.957 14C136.957 12.536 138.157 11.336 139.621 11.336C141.109 11.336 142.285 12.536 142.285 14C142.285 15.464 141.085 16.664 139.621 16.664ZM144.949 16.664C143.485 16.664 142.285 15.464 142.285 14C142.285 12.536 143.485 11.336 144.949 11.336C146.437 11.336 147.613 12.536 147.613 14C147.613 15.464 146.437 16.664 144.949 16.664ZM160.957 16.664C159.493 16.664 158.293 15.464 158.293 14C158.293 12.536 159.493 11.336 160.957 11.336C162.421 11.336 163.621 12.536 163.621 14C163.621 15.464 162.421 16.664 160.957 16.664ZM139.621 11.336C138.157 11.336 136.957 10.136 136.957 8.672C136.957 7.184 138.157 6.008 139.621 6.008C141.109 6.008 142.285 7.184 142.285 8.672C142.285 10.136 141.085 11.336 139.621 11.336ZM160.957 11.336C159.493 11.336 158.293 10.136 158.293 8.672C158.293 7.184 159.493 6.008 160.957 6.008C162.421 6.008 163.621 7.184 163.621 8.672C163.621 10.136 162.421 11.336 160.957 11.336ZM139.621 6.008C138.157 6.008 136.957 4.808 136.957 3.344C136.957 1.856 138.157 0.655997 139.621 0.655997C141.109 0.655997 142.285 1.856 142.285 3.344C142.285 4.808 141.085 6.008 139.621 6.008ZM160.957 6.008C159.493 6.008 158.293 4.808 158.293 3.344C158.293 1.856 159.493 0.655997 160.957 0.655997C162.421 0.655997 163.621 1.856 163.621 3.344C163.621 4.808 162.421 6.008 160.957 6.008ZM174.998 38C173.534 38 172.334 36.8 172.334 35.336C172.334 33.848 173.534 32.672 174.998 32.672C176.486 32.672 177.662 33.872 177.662 35.336C177.662 36.8 176.486 38 174.998 38ZM180.35 38C178.862 38 177.662 36.8 177.662 35.336C177.662 33.848 178.862 32.672 180.35 32.672C181.814 32.672 183.014 33.872 183.014 35.336C183.014 36.8 181.814 38 180.35 38ZM185.678 38C184.19 38 183.014 36.8 183.014 35.336C183.014 33.848 184.19 32.672 185.678 32.672C187.142 32.672 188.342 33.872 188.342 35.336C188.342 36.8 187.142 38 185.678 38ZM169.67 32.672C168.206 32.672 167.006 31.472 167.006 30.008C167.006 28.52 168.206 27.344 169.67 27.344C171.158 27.344 172.334 28.52 172.334 30.008C172.334 31.472 171.134 32.672 169.67 32.672ZM191.006 32.672C189.542 32.672 188.342 31.472 188.342 30.008C188.342 28.52 189.542 27.344 191.006 27.344C192.47 27.344 193.67 28.52 193.67 30.008C193.67 31.472 192.47 32.672 191.006 32.672ZM169.67 27.344C168.206 27.344 167.006 26.144 167.006 24.656C167.006 23.192 168.206 21.992 169.67 21.992C171.158 21.992 172.334 23.192 172.334 24.656C172.334 26.144 171.134 27.344 169.67 27.344ZM191.006 27.344C189.542 27.344 188.342 26.144 188.342 24.656C188.342 23.192 189.542 21.992 191.006 21.992C192.47 21.992 193.67 23.192 193.67 24.656C193.67 26.144 192.47 27.344 191.006 27.344ZM169.67 21.992C168.206 21.992 167.006 20.816 167.006 19.328C167.006 17.864 168.206 16.664 169.67 16.664C171.158 16.664 172.334 17.864 172.334 19.328C172.334 20.816 171.134 21.992 169.67 21.992ZM180.35 21.992C178.862 21.992 177.662 20.816 177.662 19.328C177.662 17.864 178.862 16.664 180.35 16.664C181.814 16.664 183.014 17.864 183.014 19.328C183.014 20.816 181.814 21.992 180.35 21.992ZM185.678 21.992C184.19 21.992 183.014 20.816 183.014 19.328C183.014 17.864 184.19 16.664 185.678 16.664C187.142 16.664 188.342 17.864 188.342 19.328C188.342 20.816 187.142 21.992 185.678 21.992ZM191.006 21.992C189.542 21.992 188.342 20.816 188.342 19.328C188.342 17.864 189.542 16.664 191.006 16.664C192.47 16.664 193.67 17.864 193.67 19.328C193.67 20.816 192.47 21.992 191.006 21.992ZM169.67 16.664C168.206 16.664 167.006 15.464 167.006 14C167.006 12.536 168.206 11.336 169.67 11.336C171.158 11.336 172.334 12.536 172.334 14C172.334 15.464 171.134 16.664 169.67 16.664ZM169.67 11.336C168.206 11.336 167.006 10.136 167.006 8.672C167.006 7.184 168.206 6.008 169.67 6.008C171.158 6.008 172.334 7.184 172.334 8.672C172.334 10.136 171.134 11.336 169.67 11.336ZM191.006 11.336C189.542 11.336 188.342 10.136 188.342 8.672C188.342 7.184 189.542 6.008 191.006 6.008C192.47 6.008 193.67 7.184 193.67 8.672C193.67 10.136 192.47 11.336 191.006 11.336ZM174.998 6.008C173.534 6.008 172.334 4.808 172.334 3.344C172.334 1.856 173.534 0.655997 174.998 0.655997C176.486 0.655997 177.662 1.856 177.662 3.344C177.662 4.808 176.486 6.008 174.998 6.008ZM180.35 6.008C178.862 6.008 177.662 4.808 177.662 3.344C177.662 1.856 178.862 0.655997 180.35 0.655997C181.814 0.655997 183.014 1.856 183.014 3.344C183.014 4.808 181.814 6.008 180.35 6.008ZM185.678 6.008C184.19 6.008 183.014 4.808 183.014 3.344C183.014 1.856 184.19 0.655997 185.678 0.655997C187.142 0.655997 188.342 1.856 188.342 3.344C188.342 4.808 187.142 6.008 185.678 6.008Z" fill="#111111"/>
</svg>
