<svg width="200" height="32" viewBox="0 0 200 32" fill="none" xmlns="http://www.w3.org/2000/svg">
<g clip-path="url(#clip0_16_113)">
<path d="M8 8.8C8 8 8 8 8 7.2C8 6.4 8.8 5.6 10.4 5.6C12 5.6 12.8 6.4 12.8 8V9.6H20V7.2C20 0.8 14.4 0 10.4 0C5.6 0 0.8 1.6 0.8 6.4C0.8 8 0.8 8.8 0.8 10.4C2.4 16 12 17.6 13.6 21.6C13.6 22.4 13.6 23.2 13.6 24C13.6 24.8 12.8 25.6 11.2 25.6C9.6 25.6 8 24.8 8 23.2V20.8H0V23.2C0 29.6 4.8 31.2 10.4 31.2C15.2 31.2 20 29.6 20.8 24.8C20.8 22.4 20.8 20.8 20.8 20C19.2 14.4 8.8 12.8 8 8.8ZM100.8 8.8C100.8 8 100.8 8 100.8 7.2C100.8 6.4 101.6 5.6 103.2 5.6C104.8 5.6 105.6 6.4 105.6 8V9.6H112.8V8C112.8 1.6 107.2 0.8 103.2 0.8C98.4 0.8 94.4 2.4 93.6 7.2C93.6 8.8 93.6 9.6 93.6 11.2C95.2 16.8 104.8 18.4 106.4 22.4C106.4 23.2 106.4 24 106.4 24.8C106.4 25.6 105.6 26.4 104 26.4C102.4 26.4 100.8 25.6 100.8 24V21.6H93.6V24C93.6 30.4 98.4 32 104 32C108.8 32 113.6 30.4 113.6 25.6C113.6 23.2 113.6 21.6 113.6 20.8C112 14.4 101.6 12.8 100.8 8.8ZM165.6 24.8L159.2 1.6H148.8V29.6H156L155.2 5.6L162.4 29.6H172.8V1.6H165.6V24.8ZM31.2 1.6L25.6 30.4H33.6L37.6 4L41.6 30.4H49.6L44 1.6H31.2ZM73.6 1.6L69.6 24L66.4 1.6H54.4L53.6 30.4H60.8V4L65.6 30.4H72.8L77.6 4V30.4H84.8L84 1.6H73.6ZM140 1.6H132.8V22.4V23.2C132.8 24 132 25.6 130.4 25.6C128.8 25.6 128 24 128 23.2V22.4V1.6H120.8V22.4C120.8 23.2 120.8 24 120.8 24C121.6 29.6 125.6 31.2 130.4 31.2C136 31.2 140 29.6 140 24V22.4V1.6ZM189.6 14.4V18.4H192.8V22.4V23.2C192.8 24 192 25.6 189.6 25.6C187.2 25.6 187.2 24 186.4 23.2V22.4V9.6C186.4 8.8 186.4 8.8 186.4 8C186.4 7.2 187.2 5.6 189.6 5.6C192 5.6 192 7.2 192.8 8C192.8 8.8 192.8 8.8 192.8 8.8V10.4H200V9.6C200 9.6 200 8.8 200 8C199.2 2.4 195.2 0.8 189.6 0.8C184.8 0.8 180 2.4 179.2 8C179.2 8.8 179.2 9.6 179.2 9.6V21.6C179.2 22.4 179.2 22.4 179.2 23.2C180 28.8 184 30.4 189.6 30.4C194.4 30.4 199.2 28.8 200 23.2C200 22.4 200 21.6 200 21.6V13.6H189.6V14.4Z" fill="#111111"/>
</g>
<defs>
<clipPath id="clip0_16_113">
<rect width="200" height="32" fill="white"/>
</clipPath>
</defs>
</svg>
