<svg width="19" height="30" viewBox="0 0 19 30" fill="none" xmlns="http://www.w3.org/2000/svg">
<path d="M2.71429 30C1.96786 30 1.32887 29.733 0.797321 29.1989C0.265774 28.6648 0 28.0227 0 27.2727V2.72727C0 1.97727 0.265774 1.33523 0.797321 0.801136C1.32887 0.267045 1.96786 0 2.71429 0H16.2857C17.0321 0 17.6711 0.267045 18.2027 0.801136C18.7342 1.33523 19 1.97727 19 2.72727V27.2727C19 28.0227 18.7342 28.6648 18.2027 29.1989C17.6711 29.733 17.0321 30 16.2857 30H2.71429ZM2.71429 25.9091V27.2727H16.2857V25.9091H2.71429ZM2.71429 23.1818H16.2857V6.81818H2.71429V23.1818ZM2.71429 4.09091H16.2857V2.72727H2.71429V4.09091Z" fill="#111111"/>
</svg>
