<svg width="18" height="17" viewBox="0 0 18 17" fill="none" xmlns="http://www.w3.org/2000/svg">
<path d="M8.52441 1.08203C8.66475 0.650117 9.246 0.622948 9.44141 1.00098L9.47559 1.08203L10.7695 5.06445C10.9704 5.68244 11.5465 6.10059 12.1963 6.10059H16.3838C16.8379 6.10059 17.0433 6.64559 16.7441 6.94824L16.6777 7.00488L13.29 9.4668C12.7972 9.82487 12.5726 10.4423 12.7119 11.0273L12.7451 11.1436L14.0391 15.127C14.1791 15.5586 13.7249 15.922 13.3447 15.7314L13.2695 15.6855L9.88184 13.2246C9.38888 12.8665 8.73211 12.8437 8.21875 13.1572L8.11816 13.2246L4.73047 15.6855C4.3631 15.9525 3.87644 15.6325 3.94043 15.2119L3.96094 15.127L5.25488 11.1436C5.44304 10.5642 5.26135 9.93331 4.80469 9.54199L4.70996 9.4668L1.32227 7.00488C0.930604 6.72014 1.13191 6.10059 1.61621 6.10059H5.80371C6.41297 6.10059 6.95738 5.73301 7.18848 5.17773L7.23047 5.06445L8.52441 1.08203Z" stroke="#8295DF"/>
</svg>
