<svg width="118" height="27" viewBox="0 0 118 27" fill="none" xmlns="http://www.w3.org/2000/svg">
<path d="M16.6971 21.6055V26H0.296719V0.634766H5.60531V21.6055H16.6971ZM36.8065 7.15625V26H31.8495V22.6074H31.744C30.8123 24.9805 28.9491 26.3516 26.1014 26.3516C22.0233 26.3516 19.3162 23.6973 19.3162 19.3027V7.15625H24.4491V18.2305C24.4491 20.7441 25.6971 22.0801 27.9647 22.0801C30.2498 22.0801 31.6737 20.4453 31.6737 17.9492V7.15625H36.8065ZM47.8983 19.4609H47.7928L44.2596 26H38.8631L44.7694 16.6133L38.8983 7.15625H44.6815L48.0741 13.5195H48.1795L51.5194 7.15625H57.1092L51.2205 16.4727L57.0565 26H51.4842L47.8983 19.4609ZM58.377 2.81445H63.5098V7.15625H66.9902V11.0234H63.5098V20.041C63.5098 21.4824 64.2129 22.168 65.7246 22.168C66.1816 22.168 66.6562 22.1328 66.9727 22.0801V25.8594C66.4453 25.9824 65.5664 26.0703 64.5293 26.0703C60.0996 26.0703 58.377 24.5938 58.377 20.9199V11.0234H55.7227V7.15625H58.377V2.81445ZM76.0099 26.4043C70.3146 26.4043 66.6759 22.748 66.6759 16.5605C66.6759 10.4609 70.3673 6.75195 76.0099 6.75195C81.6525 6.75195 85.3439 10.4434 85.3439 16.5605C85.3439 22.7656 81.7052 26.4043 76.0099 26.4043ZM76.0099 22.4844C78.5236 22.4844 80.1232 20.3574 80.1232 16.5781C80.1232 12.834 78.506 10.6719 76.0099 10.6719C73.5138 10.6719 71.8791 12.834 71.8791 16.5781C71.8791 20.3574 73.4787 22.4844 76.0099 22.4844ZM87.9982 26V7.15625H92.9552V10.5488H93.0607C93.7287 8.1582 95.3283 6.85742 97.5431 6.85742C98.1408 6.85742 98.6505 6.94531 99.0021 7.05078V11.5684C98.5802 11.3926 97.8771 11.2695 97.1388 11.2695C94.6076 11.2695 93.131 12.8164 93.131 15.4707V26H87.9982ZM108.934 10.5488C106.684 10.5488 105.067 12.2539 104.891 14.6094H112.889C112.783 12.2012 111.219 10.5488 108.934 10.5488ZM112.959 20.2344H117.67C117.108 23.9258 113.733 26.4043 109.074 26.4043C103.274 26.4043 99.7931 22.6953 99.7931 16.666C99.7931 10.6543 103.309 6.75195 108.881 6.75195C114.365 6.75195 117.828 10.4609 117.828 16.1914V17.7559H104.838V18.0723C104.838 20.7617 106.543 22.6074 109.162 22.6074C111.043 22.6074 112.485 21.6758 112.959 20.2344Z" fill="#111111"/>
</svg>
