<svg width="120" height="120" viewBox="0 0 120 120" fill="none" xmlns="http://www.w3.org/2000/svg">
<path d="M107.707 34.0632C108.406 31.719 107.707 30 104.404 30H93.4596C90.6749 30 89.4024 31.4871 88.7037 33.1205C88.7037 33.1205 83.1394 46.8274 75.2546 55.715C72.7095 58.3011 71.5467 59.1178 70.1594 59.1178C69.4657 59.1178 68.4576 58.3011 68.4576 55.957V34.0632C68.4576 31.2502 67.6542 30 65.3336 30H48.1367C46.4 30 45.352 31.3006 45.352 32.5408C45.352 35.2025 49.2945 35.8175 49.6987 43.3188V59.5917C49.6987 63.1558 49.0649 63.8061 47.6676 63.8061C43.9597 63.8061 34.9371 50.0487 29.5824 34.3001C28.5394 31.2401 27.4864 30.005 24.6918 30.005H13.7528C10.6238 30.005 10 31.4922 10 33.1255C10 36.0595 13.7079 50.5781 27.2718 69.7799C36.3144 82.8919 49.0449 90 60.6427 90C67.5943 90 68.4526 88.4221 68.4526 85.6999V75.7889C68.4526 72.6332 69.1164 71.998 71.3171 71.998C72.934 71.998 75.7187 72.8247 82.2112 79.1413C89.6269 86.6325 90.8546 89.995 95.0216 89.995H105.961C109.085 89.995 110.647 88.4171 109.748 85.3016C108.765 82.2013 105.222 77.6895 100.521 72.3509C97.9659 69.306 94.1482 66.0292 92.9855 64.3909C91.3636 62.2786 91.8327 61.346 92.9855 59.4707C92.9905 59.4757 106.32 40.5108 107.707 34.0632Z" fill="#111111"/>
</svg>
