<svg width="38" height="28" viewBox="0 0 38 28" fill="none" xmlns="http://www.w3.org/2000/svg">
<path d="M8.99984 27.3334C7.61095 27.3334 6.43039 26.8472 5.45817 25.875C4.48595 24.9028 3.99984 23.7222 3.99984 22.3334H0.666504V4.00002C0.666504 3.08335 0.992893 2.29863 1.64567 1.64585C2.29845 0.993076 3.08317 0.666687 3.99984 0.666687H27.3332V7.33335H32.3332L37.3332 14V22.3334H33.9998C33.9998 23.7222 33.5137 24.9028 32.5415 25.875C31.5693 26.8472 30.3887 27.3334 28.9998 27.3334C27.6109 27.3334 26.4304 26.8472 25.4582 25.875C24.4859 24.9028 23.9998 23.7222 23.9998 22.3334H13.9998C13.9998 23.7222 13.5137 24.9028 12.5415 25.875C11.5693 26.8472 10.3887 27.3334 8.99984 27.3334ZM8.99984 24C9.47206 24 9.86789 23.8403 10.1873 23.5209C10.5068 23.2014 10.6665 22.8056 10.6665 22.3334C10.6665 21.8611 10.5068 21.4653 10.1873 21.1459C9.86789 20.8264 9.47206 20.6667 8.99984 20.6667C8.52762 20.6667 8.13178 20.8264 7.81234 21.1459C7.49289 21.4653 7.33317 21.8611 7.33317 22.3334C7.33317 22.8056 7.49289 23.2014 7.81234 23.5209C8.13178 23.8403 8.52762 24 8.99984 24ZM3.99984 19H5.33317C5.80539 18.5 6.34706 18.0972 6.95817 17.7917C7.56928 17.4861 8.24984 17.3334 8.99984 17.3334C9.74984 17.3334 10.4304 17.4861 11.0415 17.7917C11.6526 18.0972 12.1943 18.5 12.6665 19H23.9998V4.00002H3.99984V19ZM28.9998 24C29.4721 24 29.8679 23.8403 30.1873 23.5209C30.5068 23.2014 30.6665 22.8056 30.6665 22.3334C30.6665 21.8611 30.5068 21.4653 30.1873 21.1459C29.8679 20.8264 29.4721 20.6667 28.9998 20.6667C28.5276 20.6667 28.1318 20.8264 27.8123 21.1459C27.4929 21.4653 27.3332 21.8611 27.3332 22.3334C27.3332 22.8056 27.4929 23.2014 27.8123 23.5209C28.1318 23.8403 28.5276 24 28.9998 24ZM27.3332 15.6667H34.4165L30.6665 10.6667H27.3332V15.6667Z" fill="#111111"/>
</svg>
