<svg width="30" height="30" viewBox="0 0 30 30" fill="none" xmlns="http://www.w3.org/2000/svg">
<path d="M14.9999 15C12.9833 15 11.2569 14.282 9.82075 12.8459C8.38464 11.4098 7.66659 9.68337 7.66659 7.66671C7.66659 5.65004 8.38464 3.92365 9.82075 2.48754C11.2569 1.05143 12.9833 0.333374 14.9999 0.333374C17.0166 0.333374 18.743 1.05143 20.1791 2.48754C21.6152 3.92365 22.3333 5.65004 22.3333 7.66671C22.3333 9.68337 21.6152 11.4098 20.1791 12.8459C18.743 14.282 17.0166 15 14.9999 15ZM0.333252 29.6667V24.5334C0.333252 23.4945 0.600613 22.5396 1.13534 21.6688C1.67006 20.798 2.38047 20.1334 3.26659 19.675C5.16103 18.7278 7.08603 18.0174 9.04159 17.5438C10.9971 17.0702 12.9833 16.8334 14.9999 16.8334C17.0166 16.8334 19.0027 17.0702 20.9583 17.5438C22.9138 18.0174 24.8388 18.7278 26.7333 19.675C27.6194 20.1334 28.3298 20.798 28.8645 21.6688C29.3992 22.5396 29.6666 23.4945 29.6666 24.5334V29.6667H0.333252ZM3.99992 26H25.9999V24.5334C25.9999 24.1973 25.9159 23.8917 25.7478 23.6167C25.5798 23.3417 25.3583 23.1278 25.0833 22.975C23.4333 22.15 21.768 21.5313 20.0874 21.1188C18.4069 20.7063 16.711 20.5 14.9999 20.5C13.2888 20.5 11.593 20.7063 9.91242 21.1188C8.23186 21.5313 6.56659 22.15 4.91659 22.975C4.64159 23.1278 4.42006 23.3417 4.252 23.6167C4.08395 23.8917 3.99992 24.1973 3.99992 24.5334V26ZM14.9999 11.3334C16.0083 11.3334 16.8714 10.9743 17.5895 10.2563C18.3076 9.53824 18.6666 8.67504 18.6666 7.66671C18.6666 6.65837 18.3076 5.79518 17.5895 5.07712C16.8714 4.35907 16.0083 4.00004 14.9999 4.00004C13.9916 4.00004 13.1284 4.35907 12.4103 5.07712C11.6923 5.79518 11.3333 6.65837 11.3333 7.66671C11.3333 8.67504 11.6923 9.53824 12.4103 10.2563C13.1284 10.9743 13.9916 11.3334 14.9999 11.3334Z" fill="#111111"/>
</svg>
