<svg width="30" height="30" viewBox="0 0 30 30" fill="none" xmlns="http://www.w3.org/2000/svg">
<mask id="path-1-inside-1_45_1131" fill="white">
<path d="M27.6667 30L17.1667 19.5C16.3333 20.1667 15.375 20.6944 14.2917 21.0833C13.2083 21.4722 12.0556 21.6667 10.8333 21.6667C7.80556 21.6667 5.24306 20.6181 3.14583 18.5208C1.04861 16.4236 0 13.8611 0 10.8333C0 7.80556 1.04861 5.24306 3.14583 3.14583C5.24306 1.04861 7.80556 0 10.8333 0C13.8611 0 16.4236 1.04861 18.5208 3.14583C20.6181 5.24306 21.6667 7.80556 21.6667 10.8333C21.6667 12.0556 21.4722 13.2083 21.0833 14.2917C20.6944 15.375 20.1667 16.3333 19.5 17.1667L30 27.6667L27.6667 30ZM10.8333 18.3333C12.9167 18.3333 14.6875 17.6042 16.1458 16.1458C17.6042 14.6875 18.3333 12.9167 18.3333 10.8333C18.3333 8.75 17.6042 6.97917 16.1458 5.52083C14.6875 4.0625 12.9167 3.33333 10.8333 3.33333C8.75 3.33333 6.97917 4.0625 5.52083 5.52083C4.0625 6.97917 3.33333 8.75 3.33333 10.8333C3.33333 12.9167 4.0625 14.6875 5.52083 16.1458C6.97917 17.6042 8.75 18.3333 10.8333 18.3333Z"/>
</mask>
<path d="M27.6667 30L17.1667 19.5C16.3333 20.1667 15.375 20.6944 14.2917 21.0833C13.2083 21.4722 12.0556 21.6667 10.8333 21.6667C7.80556 21.6667 5.24306 20.6181 3.14583 18.5208C1.04861 16.4236 0 13.8611 0 10.8333C0 7.80556 1.04861 5.24306 3.14583 3.14583C5.24306 1.04861 7.80556 0 10.8333 0C13.8611 0 16.4236 1.04861 18.5208 3.14583C20.6181 5.24306 21.6667 7.80556 21.6667 10.8333C21.6667 12.0556 21.4722 13.2083 21.0833 14.2917C20.6944 15.375 20.1667 16.3333 19.5 17.1667L30 27.6667L27.6667 30ZM10.8333 18.3333C12.9167 18.3333 14.6875 17.6042 16.1458 16.1458C17.6042 14.6875 18.3333 12.9167 18.3333 10.8333C18.3333 8.75 17.6042 6.97917 16.1458 5.52083C14.6875 4.0625 12.9167 3.33333 10.8333 3.33333C8.75 3.33333 6.97917 4.0625 5.52083 5.52083C4.0625 6.97917 3.33333 8.75 3.33333 10.8333C3.33333 12.9167 4.0625 14.6875 5.52083 16.1458C6.97917 17.6042 8.75 18.3333 10.8333 18.3333Z" fill="#111111"/>
<path d="M27.6667 30L24.1311 33.5355L27.6667 37.0711L31.2022 33.5355L27.6667 30ZM17.1667 19.5L20.7022 15.9645L17.5377 12.8L14.0432 15.5957L17.1667 19.5ZM19.5 17.1667L15.5957 14.0432L12.8 17.5377L15.9645 20.7022L19.5 17.1667ZM30 27.6667L33.5355 31.2022L37.0711 27.6667L33.5355 24.1311L30 27.6667ZM27.6667 30L31.2022 26.4645L20.7022 15.9645L17.1667 19.5L13.6311 23.0355L24.1311 33.5355L27.6667 30ZM17.1667 19.5L14.0432 15.5957C13.673 15.8918 13.2075 16.1601 12.6023 16.3774L14.2917 21.0833L15.981 25.7893C17.5425 25.2288 18.9936 24.4415 20.2901 23.4043L17.1667 19.5ZM14.2917 21.0833L12.6023 16.3774C12.0937 16.5599 11.5156 16.6667 10.8333 16.6667V21.6667V26.6667C12.5955 26.6667 14.3229 26.3845 15.981 25.7893L14.2917 21.0833ZM10.8333 21.6667V16.6667C9.10063 16.6667 7.81921 16.1231 6.68137 14.9853L3.14583 18.5208L-0.389701 22.0564C2.6669 25.113 6.51048 26.6667 10.8333 26.6667V21.6667ZM3.14583 18.5208L6.68137 14.9853C5.54353 13.8475 5 12.566 5 10.8333H0H-5C-5 15.1562 -3.4463 18.9998 -0.389701 22.0564L3.14583 18.5208ZM0 10.8333H5C5 9.10063 5.54353 7.81921 6.68137 6.68137L3.14583 3.14583L-0.389701 -0.389701C-3.4463 2.6669 -5 6.51048 -5 10.8333H0ZM3.14583 3.14583L6.68137 6.68137C7.81921 5.54353 9.10063 5 10.8333 5V0V-5C6.51048 -5 2.6669 -3.4463 -0.389701 -0.389701L3.14583 3.14583ZM10.8333 0V5C12.566 5 13.8475 5.54353 14.9853 6.68137L18.5208 3.14583L22.0564 -0.389701C18.9998 -3.4463 15.1562 -5 10.8333 -5V0ZM18.5208 3.14583L14.9853 6.68137C16.1231 7.81921 16.6667 9.10063 16.6667 10.8333H21.6667H26.6667C26.6667 6.51048 25.113 2.6669 22.0564 -0.389701L18.5208 3.14583ZM21.6667 10.8333H16.6667C16.6667 11.5156 16.5599 12.0937 16.3774 12.6023L21.0833 14.2917L25.7893 15.981C26.3845 14.3229 26.6667 12.5955 26.6667 10.8333H21.6667ZM21.0833 14.2917L16.3774 12.6023C16.1601 13.2075 15.8918 13.673 15.5957 14.0432L19.5 17.1667L23.4043 20.2901C24.4415 18.9936 25.2288 17.5425 25.7893 15.981L21.0833 14.2917ZM19.5 17.1667L15.9645 20.7022L26.4645 31.2022L30 27.6667L33.5355 24.1311L23.0355 13.6311L19.5 17.1667ZM30 27.6667L26.4645 24.1311L24.1311 26.4645L27.6667 30L31.2022 33.5355L33.5355 31.2022L30 27.6667ZM10.8333 18.3333V23.3333C14.2276 23.3333 17.2747 22.088 19.6814 19.6814L16.1458 16.1458L12.6103 12.6103C12.1003 13.1203 11.6057 13.3333 10.8333 13.3333V18.3333ZM16.1458 16.1458L19.6814 19.6814C22.088 17.2747 23.3333 14.2276 23.3333 10.8333H18.3333H13.3333C13.3333 11.6057 13.1203 12.1003 12.6103 12.6103L16.1458 16.1458ZM18.3333 10.8333H23.3333C23.3333 7.43905 22.088 4.39196 19.6814 1.9853L16.1458 5.52083L12.6103 9.05637C13.1203 9.56637 13.3333 10.0609 13.3333 10.8333H18.3333ZM16.1458 5.52083L19.6814 1.9853C17.2747 -0.421363 14.2276 -1.66667 10.8333 -1.66667V3.33333V8.33333C11.6057 8.33333 12.1003 8.54636 12.6103 9.05637L16.1458 5.52083ZM10.8333 3.33333V-1.66667C7.43905 -1.66667 4.39196 -0.421364 1.9853 1.9853L5.52083 5.52083L9.05637 9.05637C9.56637 8.54636 10.0609 8.33333 10.8333 8.33333V3.33333ZM5.52083 5.52083L1.9853 1.9853C-0.421364 4.39196 -1.66667 7.43905 -1.66667 10.8333H3.33333H8.33333C8.33333 10.0609 8.54636 9.56637 9.05637 9.05637L5.52083 5.52083ZM3.33333 10.8333H-1.66667C-1.66667 14.2276 -0.421363 17.2747 1.9853 19.6814L5.52083 16.1458L9.05637 12.6103C8.54636 12.1003 8.33333 11.6057 8.33333 10.8333H3.33333ZM5.52083 16.1458L1.9853 19.6814C4.39196 22.088 7.43905 23.3333 10.8333 23.3333V18.3333V13.3333C10.0609 13.3333 9.56637 13.1203 9.05637 12.6103L5.52083 16.1458Z" fill="#111111" mask="url(#path-1-inside-1_45_1131)"/>
</svg>
